<?xml version="1.0" encoding="UTF-8" standalone="no"?>
<!DOCTYPE svg PUBLIC "-//W3C//DTD SVG 1.1//EN" "http://www.w3.org/Graphics/SVG/1.1/DTD/svg11.dtd">
<svg width="100%" height="100%" viewBox="0 0 24 24" version="1.1" id="coupon" xmlns="http://www.w3.org/2000/svg" xmlns:xlink="http://www.w3.org/1999/xlink" xml:space="preserve" xmlns:serif="http://www.serif.com/" style="fill-rule:evenodd;clip-rule:evenodd;stroke-linejoin:round;stroke-miterlimit:2;">
    <rect x="0" y="0" width="24" height="24" style="fill:none;fill-rule:nonzero;"/>
    <path d="M22,8.54L22,6C22,4.9 21.1,4 20,4L4,4C2.9,4 2.01,4.89 2.01,6L2.01,8.54C2.01,9.23 2.34,9.91 2.95,10.23C3.58,10.58 4,11.24 4,12C4,12.76 3.57,13.43 2.94,13.76C2.34,14.09 2,14.77 2,15.46L2,18C2,19.1 2.9,20 4,20L20,20C21.1,20 22,19.1 22,18L22,15.46C22,14.77 21.66,14.09 21.06,13.76C20.43,13.42 20,12.76 20,12C20,11.24 20.43,10.58 21.06,10.24C21.66,9.91 22,9.23 22,8.54ZM13,17.5L11,17.5L11,15.5L13,15.5L13,17.5ZM13,13L11,13L11,11L13,11L13,13ZM13,8.5L11,8.5L11,6.5L13,6.5L13,8.5Z" style="fill-rule:nonzero;"/>
</svg>
