<?xml version="1.0" encoding="UTF-8" standalone="no"?>
<!DOCTYPE svg PUBLIC "-//W3C//DTD SVG 1.1//EN" "http://www.w3.org/Graphics/SVG/1.1/DTD/svg11.dtd">
<svg width="100%" height="100%" viewBox="0 0 24 24" version="1.1" id="home" xmlns="http://www.w3.org/2000/svg" xmlns:xlink="http://www.w3.org/1999/xlink" xml:space="preserve" xmlns:serif="http://www.serif.com/" style="fill-rule:evenodd;clip-rule:evenodd;stroke-linejoin:round;stroke-miterlimit:2;">
    <rect x="0" y="0" width="24" height="24" style="fill:none;fill-rule:nonzero;"/>
    <path d="M10,19L10,14L14,14L14,19C14,19.55 14.45,20 15,20L18,20C18.55,20 19,19.55 19,19L19,12L20.7,12C21.16,12 21.38,11.43 21.03,11.13L12.67,3.6C12.29,3.26 11.71,3.26 11.33,3.6L2.97,11.13C2.63,11.43 2.84,12 3.3,12L5,12L5,19C5,19.55 5.45,20 6,20L9,20C9.55,20 10,19.55 10,19Z" style="fill-rule:nonzero;"/>
</svg>
