<?xml version="1.0" encoding="UTF-8" standalone="no"?>
<!DOCTYPE svg PUBLIC "-//W3C//DTD SVG 1.1//EN" "http://www.w3.org/Graphics/SVG/1.1/DTD/svg11.dtd">
<svg width="100%" height="100%" viewBox="0 0 24 24" version="1.1" id="profile" xmlns="http://www.w3.org/2000/svg" xmlns:xlink="http://www.w3.org/1999/xlink" xml:space="preserve" xmlns:serif="http://www.serif.com/" style="fill-rule:evenodd;clip-rule:evenodd;stroke-linejoin:round;stroke-miterlimit:2;">
    <rect x="0" y="0" width="24" height="24" style="fill:none;fill-rule:nonzero;"/>
    <path d="M12,2C6.48,2 2,6.48 2,12C2,17.52 6.48,22 12,22C17.52,22 22,17.52 22,12C22,6.48 17.52,2 12,2ZM12,5C13.66,5 15,6.34 15,8C15,9.66 13.66,11 12,11C10.34,11 9,9.66 9,8C9,6.34 10.34,5 12,5ZM12,19.2C9.5,19.2 7.29,17.92 6,15.98C6.03,13.99 10,12.9 12,12.9C13.99,12.9 17.97,13.99 18,15.98C16.71,17.92 14.5,19.2 12,19.2Z" style="fill-rule:nonzero;"/>
</svg>
